<?xml version="1.0" standalone="no"?>
<!DOCTYPE svg PUBLIC "-//W3C//DTD SVG 20010904//EN"
 "http://www.w3.org/TR/2001/REC-SVG-20010904/DTD/svg10.dtd">
<svg version="1.0" xmlns="http://www.w3.org/2000/svg"
 width="604.000000pt" height="506.000000pt" viewBox="0 0 604.000000 506.000000"
 preserveAspectRatio="xMidYMid meet">

<g transform="translate(0.000000,506.000000) scale(0.100000,-0.100000)"
fill="#000000" stroke="none">
<path d="M2855 4639 c-71 -15 -215 -48 -320 -71 l-190 -43 -577 -5 c-563 -5
-577 -5 -604 -26 -55 -41 -69 -70 -73 -154 l-3 -80 -34 -9 c-18 -5 -103 -24
-188 -41 -86 -18 -169 -41 -186 -52 -33 -20 -70 -87 -69 -128 0 -14 8 -60 18
-102 10 -42 15 -81 12 -86 -3 -5 -73 -48 -156 -96 -82 -48 -158 -97 -167 -109
-34 -41 -44 -95 -27 -141 14 -40 759 -1326 785 -1357 11 -12 14 -159 16 -796
3 -772 3 -782 24 -809 11 -15 33 -37 48 -48 27 -21 31 -21 1236 -21 1205 0
1209 0 1236 21 15 11 37 33 48 48 20 26 21 42 24 362 l3 334 -56 0 -55 0 0
-335 0 -335 -1200 0 -1200 0 0 1925 0 1925 1200 0 1200 0 0 -390 0 -390 55 0
56 0 -3 394 c-3 381 -4 396 -24 422 -50 68 -55 69 -289 72 l-214 3 -6 30 c-8
36 -48 85 -86 104 -38 20 -82 17 -234 -16z m205 -78 c0 -5 3 -16 6 -25 5 -14
-8 -16 -112 -15 l-119 1 100 23 c117 27 125 28 125 16z m-1970 -1323 c0 -894
0 -912 -19 -883 -10 17 -15 35 -10 40 4 6 -1 51 -12 100 -11 50 -28 131 -39
180 -23 109 -147 687 -229 1065 -32 151 -61 286 -63 300 -3 25 -1 26 182 67
102 23 186 42 188 42 1 1 2 -410 2 -911z m-398 400 c9 -46 58 -272 108 -503
108 -501 104 -481 97 -475 -15 14 -517 885 -514 893 3 11 267 167 283 167 5 0
17 -37 26 -82z"/>
<path d="M1482 4134 c-124 -124 -158 -180 -149 -242 15 -86 125 -131 205 -82
l32 20 0 -25 c0 -43 -40 -133 -71 -160 l-31 -25 133 0 132 0 -27 21 c-14 11
-34 35 -43 52 -16 31 -45 137 -37 137 2 0 18 -9 36 -20 77 -47 189 -5 204 77
12 66 -19 117 -149 245 -66 65 -120 117 -121 117 0 -1 -52 -53 -114 -115z"/>
<path d="M2650 2476 l0 -966 220 0 220 0 0 370 0 370 75 0 c147 0 185 -40 429
-443 l179 -297 249 0 c197 0 248 3 242 13 -56 90 -378 588 -411 636 -61 85
-143 166 -198 194 l-46 23 78 32 c152 62 268 176 324 319 27 69 38 241 20 323
-39 183 -170 304 -392 361 -79 21 -110 23 -536 26 l-453 4 0 -965z m779 620
c107 -39 155 -111 155 -231 0 -84 -24 -144 -79 -200 -66 -66 -110 -79 -272
-83 l-143 -4 0 272 0 273 148 -6 c99 -3 161 -10 191 -21z"/>
<path d="M4450 2475 l0 -965 220 0 220 0 0 375 0 375 310 0 310 0 0 175 0 175
-310 0 -310 0 0 240 0 240 340 0 340 0 0 175 0 175 -560 0 -560 0 0 -965z"/>
<path d="M2466 3269 c-21 -30 -98 -110 -170 -179 -457 -436 -518 -519 -520
-705 -1 -68 3 -88 27 -137 101 -205 412 -260 586 -102 23 20 44 35 46 32 8 -8
-24 -165 -52 -252 -55 -175 -129 -276 -230 -312 -34 -12 -9 -13 215 -14 l252
0 0 164 c0 141 -4 179 -25 268 -14 57 -25 116 -25 132 l0 29 25 -23 25 -23 0
516 0 516 -37 44 c-21 24 -47 57 -58 72 l-21 28 -38 -54z"/>
</g>
</svg>
