<?xml version="1.0" encoding="UTF-8" standalone="no"?>
<svg
   width="170.248"
   height="135.92"
   viewBox="0 0 532.02585 424.74927"
   version="1.1"
   id="svg1"
   sodipodi:docname="randy.svg"
   inkscape:version="1.3 (0e150ed6c4, 2023-07-21)"
   xmlns:inkscape="http://www.inkscape.org/namespaces/inkscape"
   xmlns:sodipodi="http://sodipodi.sourceforge.net/DTD/sodipodi-0.dtd"
   xmlns="http://www.w3.org/2000/svg"
   xmlns:svg="http://www.w3.org/2000/svg">
  <sodipodi:namedview
     id="namedview1"
     pagecolor="#ffffff"
     bordercolor="#000000"
     borderopacity="0.25"
     inkscape:showpageshadow="2"
     inkscape:pageopacity="0.0"
     inkscape:pagecheckerboard="0"
     inkscape:deskcolor="#d1d1d1"
     inkscape:document-units="in"
     inkscape:zoom="3.4368327"
     inkscape:cx="54.119597"
     inkscape:cy="73.468807"
     inkscape:window-width="1920"
     inkscape:window-height="1001"
     inkscape:window-x="-9"
     inkscape:window-y="-9"
     inkscape:window-maximized="1"
     inkscape:current-layer="svg1" />
  <defs
     id="defs1" />
  <path
     id="Selection"
     fill="none"
     stroke="#000000"
     stroke-width="1"
     d="m 84.449739,259.53851 c -1.5,-0.49 -2.06,-0.41 -3.37,-1.59 0,0 -10.23,-16.41 -10.23,-16.41 0,0 -30.2,-52 -30.2,-52 0,0 -27.26,-47 -27.26,-47 -3.83,-6.25 -11.75,-18 -11.92,-25 -0.07,-2.71 -0.03,-5.48 1.07,-8 3.46,-8 18.38,-14.719998 25.91,-19.199998 1.79,-1.06 7.25,-4.06 8.31,-5.43 2.27,-2.92 -0.33,-9.13 -1.15,-12.37 -1.48,-5.84 -0.87,-11.22 3.18,-15.95 5.8,-6.77 12.75,-6.16 20.66,-7.87 0,0 12,-2.91 12,-2.91 2.54,-0.39 7.69,-0.88 9.85,-1.97 4.92,-2.47 2.51,-9.82 3.54,-14.3 2.12,-9.23 9.48,-10.99 17.610001,-11 0,0 93,0 93,0 5.73,-0.08 5.03,-0.59 10,-1.64 0,0 11,-1.86 11,-1.86 0,0 13.28,-4.08 13.28,-4.08 0,0 22.72,-3.8400001 22.72,-3.8400001 0,0 14,-3.31 14,-3.31 10.56,-1.64 21.46,-5.4 26.66,7.7300001 0.9,2.28 1.14,4.59 1.34,7 0,0 34,0 34,0 13.16,0.02 17.98,4.84 18,18 0,0 0,70.999998 0,70.999998 0,0 -11,0 -11,0 0,0 0,-77.999998 0,-77.999998 0,0 -240.000001,0 -240.000001,0 0,0 0,384.999998 0,384.999998 0,0 240.000001,0 240.000001,0 0,0 0,-67 0,-67 0,0 11,0 11,0 0,0 0,60 0,60 -0.07,12.72 -5.81,16.98 -18,17 0,0 -141,0 -141,0 0,0 -85,0 -85,0 -7.810001,-0.01 -14.650001,-1.39 -17.350001,-10 -0.76,-2.41 -0.65,-5.47 -0.65,-8 z M 281.44974,18.538512 c -3.69,-4.9 -9.56,-1.7 -15,-1.17 -3.76,0.37 -6.37,-0.27 -10,1.17 z m -147,26 c 0,0 2,0 2,0 7.26,9.59 22.82,19.96 25.44,30 3.92,14.96 -10.31,22.94 -23.44,14 2.89,10.89 2.73,13.599998 13,19.999998 -6.45,0 -27.27,0.88 -32,-1 9.49,-2.79 10.58,-10.719998 13,-18.999998 -13.13,8.94 -27.36,0.96 -23.44,-14 2.62,-10.04 18.18,-20.41 25.44,-30 z m -50.000001,13 c 0,0 -36,8 -36,8 0,0 2.61,14 2.61,14 0,0 2.57,10 2.57,10 0,0 1.94,10.999998 1.94,10.999998 0,0 2.2,8 2.2,8 0,0 1.69,10 1.69,10 0,0 6.49,28 6.49,28 0,0 2.32,13 2.32,13 0,0 6.14,27 6.14,27 0,0 10.04,46 10.04,46 z m -42,42.999998 c 0,0 -27,15 -27,15 0,0 31.99,55.01 31.99,55.01 0,0 15.01,23.99 15.01,23.99 0,0 -12.45,-58 -12.45,-58 z m 198.000001,25 c 0,0 59,0 59,0 18.66,0 40.12,0.47 57,9.26 27.94,14.56 30.92,54.25 12.96,77.74 -9.16,11.98 -18.94,15.26 -31.96,21 10.19,2.07 17.7,12.11 23.63,20 0,0 23.42,36 23.42,36 0,0 18.95,30 18.95,30 0,0 -44,0 -44,0 -2.24,0 -5.56,0.24 -7.47,-0.99 -2.01,-1.3 -4.44,-5.86 -5.73,-8.01 0,0 -9.75,-16 -9.75,-16 0,0 -21.73,-35 -21.73,-35 -3,-3.88 -8.77,-10.15 -13.32,-11.99 -3.71,-1.51 -12.65,-1.01 -17,-1.01 0,0 0,73 0,73 0,0 -44,0 -44,0 z m 180,0 c 0,0 112,0 112,0 0,0 0,37 0,37 0,0 -68,0 -68,0 0,0 0,46 0,46 0,0 63,0 63,0 0,0 0,36 0,36 0,0 -63,0 -63,0 0,0 0,75 0,75 0,0 -44,0 -44,0 z m -203,130 c -14.51,13.01 -37.17,14.67 -52.99,2.84 -6.54,-4.89 -11.87,-12.49 -12.01,-20.84 0,0 0,-9 0,-9 0.06,-11.67 6.01,-21.23 13.25,-30 11.74,-14.24 25.78,-25.1 38.75,-38 6.05,-6.02 10.44,-10.2 15.77,-17 1.54,-1.96 3.93,-6.15 6.95,-4.83 2.26,0.99 8.91,10.34 9.72,12.83 0.67,2.05 0.56,4.83 0.56,7 0,0 0,99 0,99 0,0 -1,0 -1,0 0,0 -2,-2 -2,-2 0,0 3,24 3,24 0,0 0,31 0,31 0,0 -37,0 -37,0 0,0 -18,-1 -18,-1 24.13,-1.34 32.43,-34.57 35,-54 z m 67,-43 c 12.32,0 26.22,1.48 37,-5.55 13.61,-8.88 17.51,-32.66 2.99,-42.6 -9.69,-6.63 -28.36,-4.85 -39.99,-4.85 z m -50,42 c 0,0 -1,0 -1,0 0,0 1,1 1,1 z"
     style="fill:#1a1a1a;fill-opacity:1.0;stroke-opacity:1.0;stroke:#1a1a1a" />
</svg>
